<svg width="18" height="18" viewBox="0 0 18 18" fill="none" xmlns="http://www.w3.org/2000/svg">
<circle cx="9" cy="9" r="8.5" stroke="#FF1717"/>
<path d="M9.94444 5L9.74074 11.1814H8.25926L8.04938 5H9.94444ZM8 13.0951C8 12.8342 8.09053 12.6182 8.2716 12.447C8.45679 12.2717 8.69959 12.1841 9 12.1841C9.30453 12.1841 9.54733 12.2717 9.72839 12.447C9.90946 12.6182 10 12.8342 10 13.0951C10 13.3478 9.90946 13.5618 9.72839 13.7371C9.54733 13.9124 9.30453 14 9 14C8.69959 14 8.45679 13.9124 8.2716 13.7371C8.09053 13.5618 8 13.3478 8 13.0951Z" fill="#FF0000"/>
</svg>
