<svg width="102" height="88" viewBox="0 0 102 88" fill="none" xmlns="http://www.w3.org/2000/svg">
<path d="M15.2354 23V2.06682H31.1746V6.25345H19.8407V10.7092H29.8289V14.8959H19.8407V23H15.2354ZM36.206 23V2.06682H51.9956V6.16374H40.7814V10.4102H50.6499V14.5071H40.7814V18.9031H52.1451V23H36.206ZM57.5854 23V2.06682H73.375V6.16374H62.1608V10.4102H72.0293V14.5071H62.1608V18.9031H73.5245V23H57.5854ZM78.9648 23V2.06682H83.5701V18.8134H94.0068V23H78.9648Z" fill="white"/>
<path d="M12.7427 53.2573C9.49311 53.2573 6.84158 52.2405 4.78813 50.207C2.75462 48.1735 1.73787 45.5818 1.73787 42.4318C1.73787 39.4215 2.78453 36.8696 4.87785 34.7763C6.97116 32.663 9.58283 31.6064 12.7128 31.6064C14.527 31.6064 16.0621 31.8456 17.3181 32.3241C18.5741 32.7826 19.7803 33.5004 20.9366 34.4772L18.0358 37.9761C17.1586 37.2384 16.3114 36.7001 15.494 36.3612C14.6766 36.0223 13.6997 35.8528 12.5633 35.8528C10.8887 35.8528 9.46321 36.5008 8.28696 37.7966C7.13066 39.0726 6.5525 40.6176 6.5525 42.4318C6.5525 44.3457 7.14062 45.9307 8.31687 47.1867C9.51305 48.4427 11.0382 49.0707 12.8923 49.0707C14.6068 49.0707 16.0522 48.652 17.2284 47.8147V44.8242H12.5932V40.8469H21.6842V49.9379C19.0725 52.1508 16.0921 53.2573 12.7427 53.2573ZM45.5833 50.1173C43.4701 52.2106 40.8185 53.2573 37.6287 53.2573C34.4389 53.2573 31.7873 52.2106 29.6741 50.1173C27.5808 48.024 26.5341 45.4622 26.5341 42.4318C26.5341 39.4215 27.5907 36.8696 29.704 34.7763C31.8372 32.663 34.4987 31.6064 37.6885 31.6064C40.8783 31.6064 43.5199 32.6531 45.6132 34.7464C47.7265 36.8397 48.7831 39.4015 48.7831 42.4318C48.7831 45.4422 47.7165 48.0041 45.5833 50.1173ZM33.143 47.097C34.3392 48.3729 35.8544 49.0108 37.6885 49.0108C39.5227 49.0108 41.0278 48.3829 42.2041 47.1269C43.3803 45.8509 43.9685 44.2859 43.9685 42.4318C43.9685 40.5977 43.3704 39.0427 42.1742 37.7667C40.978 36.4908 39.4628 35.8528 37.6287 35.8528C35.7946 35.8528 34.2894 36.4908 33.1131 37.7667C31.9369 39.0227 31.3487 40.5778 31.3487 42.4318C31.3487 44.266 31.9468 45.821 33.143 47.097ZM72.3362 50.1173C70.2229 52.2106 67.5714 53.2573 64.3816 53.2573C61.1918 53.2573 58.5402 52.2106 56.427 50.1173C54.3337 48.024 53.287 45.4622 53.287 42.4318C53.287 39.4215 54.3436 36.8696 56.4569 34.7763C58.5901 32.663 61.2516 31.6064 64.4414 31.6064C67.6312 31.6064 70.2728 32.6531 72.3661 34.7464C74.4793 36.8397 75.536 39.4015 75.536 42.4318C75.536 45.4422 74.4694 48.0041 72.3362 50.1173ZM59.8959 47.097C61.0921 48.3729 62.6072 49.0108 64.4414 49.0108C66.2755 49.0108 67.7807 48.3829 68.957 47.1269C70.1332 45.8509 70.7213 44.2859 70.7213 42.4318C70.7213 40.5977 70.1233 39.0427 68.9271 37.7667C67.7309 36.4908 66.2157 35.8528 64.3816 35.8528C62.5474 35.8528 61.0422 36.4908 59.866 37.7667C58.6897 39.0227 58.1016 40.5778 58.1016 42.4318C58.1016 44.266 58.6997 45.821 59.8959 47.097ZM80.9669 52.8984V31.9653H89.1309C92.4004 31.9653 95.0719 32.9621 97.1453 34.9557C99.2187 36.9294 100.255 39.4215 100.255 42.4318C100.255 45.4223 99.2087 47.9143 97.1154 49.908C95.042 51.9016 92.3805 52.8984 89.1309 52.8984H80.9669ZM85.5722 48.7417H89.1309C91.0248 48.7417 92.55 48.1636 93.7063 47.0072C94.8626 45.831 95.4407 44.3059 95.4407 42.4318C95.4407 40.5778 94.8526 39.0626 93.6764 37.8864C92.52 36.7101 91.0049 36.122 89.1309 36.122H85.5722V48.7417Z" fill="white"/>
<path d="M15.3187 81.6641V64.9773H8.94902V60.7309H26.2937V64.9773H19.924V81.6641H15.3187ZM31.1812 81.6641V60.7309H46.9708V64.8278H35.7566V69.0742H45.6251V73.1712H35.7566V77.5671H47.1203V81.6641H31.1812ZM62.3693 82.0229C59.2991 82.0229 56.7373 80.9862 54.6838 78.9128C52.6503 76.8195 51.6336 74.2477 51.6336 71.1975C51.6336 68.1671 52.6603 65.6053 54.7137 63.512C56.7672 61.4187 59.3788 60.372 62.5487 60.372C64.3629 60.372 65.8881 60.6711 67.1241 61.2692C68.3602 61.8473 69.5364 62.6846 70.6528 63.7811L67.9016 66.951C67.0045 66.1336 66.1572 65.5455 65.3597 65.1867C64.5822 64.8079 63.6352 64.6185 62.5188 64.6185C60.7644 64.6185 59.3091 65.2564 58.1527 66.5324C57.0164 67.7884 56.4482 69.3434 56.4482 71.1975C56.4482 73.0316 57.0164 74.5867 58.1527 75.8626C59.3091 77.1385 60.7644 77.7765 62.5188 77.7765C63.6352 77.7765 64.6022 77.5771 65.4196 77.1784C66.2369 76.7797 67.1042 76.1616 68.0212 75.3243L70.9519 78.4643C69.8155 79.6804 68.5795 80.5775 67.2437 81.1557C65.9279 81.7338 64.3031 82.0229 62.3693 82.0229ZM75.9843 81.6641V60.7309H80.5896V69.0144H89.0825V60.7309H93.6878V81.6641H89.0825V73.2609H80.5896V81.6641H75.9843Z" fill="white"/>
</svg>
