<svg width="51" height="42" viewBox="0 0 51 42" fill="none" xmlns="http://www.w3.org/2000/svg">
<path d="M6.98735 10.996V0H15.2386V2.19919H9.37139V4.53976H14.542V6.73895H9.37139V10.996H6.98735Z" fill="#00A78E"/>
<path d="M17.8433 10.996V0H26.0171V2.15207H20.2118V4.38267H25.3205V6.53474H20.2118V8.84389H26.0946V10.996H17.8433Z" fill="#00A78E"/>
<path d="M28.9109 10.996V0H37.0847V2.15207H31.2794V4.38267H36.3881V6.53474H31.2794V8.84389H37.1621V10.996H28.9109Z" fill="#00A78E"/>
<path d="M39.9784 10.996V0H42.3625V8.79676H47.7653V10.996H39.9784Z" fill="#00A78E"/>
<path d="M5.69694 26.8898C4.01469 26.8898 2.64206 26.3557 1.57904 25.2875C0.526348 24.2193 0 22.8579 0 21.2033C0 19.622 0.541829 18.2815 1.62549 17.1819C2.70914 16.0718 4.06114 15.5168 5.68146 15.5168C6.62063 15.5168 7.41532 15.6425 8.06551 15.8938C8.7157 16.1347 9.3401 16.5117 9.93869 17.0248L8.43705 18.8627C7.98294 18.4752 7.54432 18.1925 7.12118 18.0144C6.69804 17.8364 6.19233 17.7474 5.60406 17.7474C4.73713 17.7474 3.99921 18.0878 3.3903 18.7685C2.79171 19.4387 2.49241 20.2503 2.49241 21.2033C2.49241 22.2086 2.79687 23.0412 3.40578 23.7009C4.02501 24.3607 4.81454 24.6906 5.77435 24.6906C6.66191 24.6906 7.41016 24.4706 8.01907 24.0308V22.46H5.61954V20.3707H10.3257V25.1461C8.97372 26.3085 7.4308 26.8898 5.69694 26.8898Z" fill="#00A78E"/>
<path d="M22.6977 25.2404C21.6037 26.34 20.2311 26.8898 18.5798 26.8898C16.9285 26.8898 15.5558 26.34 14.4619 25.2404C13.3782 24.1408 12.8364 22.7951 12.8364 21.2033C12.8364 19.622 13.3834 18.2815 14.4774 17.1819C15.5817 16.0718 16.9594 15.5168 18.6107 15.5168C20.262 15.5168 21.6295 16.0666 22.7132 17.1662C23.8071 18.2658 24.3541 19.6115 24.3541 21.2033C24.3541 22.7846 23.802 24.1303 22.6977 25.2404ZM16.2576 23.6538C16.8769 24.324 17.6612 24.6591 18.6107 24.6591C19.5602 24.6591 20.3394 24.3293 20.9483 23.6695C21.5573 22.9993 21.8617 22.1772 21.8617 21.2033C21.8617 20.2398 21.5521 19.423 20.9329 18.7527C20.3136 18.0825 19.5293 17.7474 18.5798 17.7474C17.6303 17.7474 16.8511 18.0825 16.2422 18.7527C15.6333 19.4125 15.3288 20.2293 15.3288 21.2033C15.3288 22.1667 15.6384 22.9836 16.2576 23.6538Z" fill="#00A78E"/>
<path d="M36.547 25.2404C35.453 26.34 34.0803 26.8898 32.4291 26.8898C30.7778 26.8898 29.4051 26.34 28.3112 25.2404C27.2275 24.1408 26.6857 22.7951 26.6857 21.2033C26.6857 19.622 27.2327 18.2815 28.3266 17.1819C29.4309 16.0718 30.8087 15.5168 32.46 15.5168C34.1113 15.5168 35.4788 16.0666 36.5624 17.1662C37.6564 18.2658 38.2034 19.6115 38.2034 21.2033C38.2034 22.7846 37.6513 24.1303 36.547 25.2404ZM30.1069 23.6538C30.7262 24.324 31.5105 24.6591 32.46 24.6591C33.4095 24.6591 34.1887 24.3293 34.7976 23.6695C35.4065 22.9993 35.711 22.1772 35.711 21.2033C35.711 20.2398 35.4014 19.423 34.7821 18.7527C34.1629 18.0825 33.3786 17.7474 32.4291 17.7474C31.4796 17.7474 30.7004 18.0825 30.0915 18.7527C29.4825 19.4125 29.1781 20.2293 29.1781 21.2033C29.1781 22.1667 29.4877 22.9836 30.1069 23.6538Z" fill="#00A78E"/>
<path d="M41.0149 26.7013V15.7053H45.2411C46.9337 15.7053 48.3167 16.2289 49.39 17.2761C50.4633 18.3129 51 19.622 51 21.2033C51 22.7741 50.4582 24.0832 49.3745 25.1304C48.3012 26.1776 46.9234 26.7013 45.2411 26.7013H41.0149ZM43.3989 24.5178H45.2411C46.2216 24.5178 47.0111 24.2141 47.6097 23.6067C48.2083 22.9888 48.5076 22.1877 48.5076 21.2033C48.5076 20.2293 48.2031 19.4334 47.5942 18.8156C46.9956 18.1977 46.2113 17.8888 45.2411 17.8888H43.3989V24.5178Z" fill="#00A78E"/>
<path d="M7.03045 41.8115V33.0462H3.73303V30.8155H12.7119V33.0462H9.4145V41.8115H7.03045Z" fill="#00A78E"/>
<path d="M15.2421 41.8115V30.8155H23.4159V32.9676H17.6106V35.1982H22.7193V37.3503H17.6106V39.6594H23.4933V41.8115H15.2421Z" fill="#00A78E"/>
<path d="M31.3873 42C29.798 42 28.4718 41.4554 27.4088 40.3663C26.3561 39.2667 25.8297 37.9158 25.8297 36.3135C25.8297 34.7217 26.3612 33.376 27.4243 32.2764C28.4873 31.1768 29.8393 30.627 31.4802 30.627C32.4194 30.627 33.2089 30.7841 33.8488 31.0983C34.4887 31.402 35.0976 31.8418 35.6755 32.4178L34.2513 34.0829C33.7869 33.6535 33.3483 33.3446 32.9354 33.1561C32.5329 32.9571 32.0427 32.8576 31.4648 32.8576C30.5565 32.8576 29.8031 33.1928 29.2046 33.863C28.6163 34.5228 28.3221 35.3396 28.3221 36.3135C28.3221 37.277 28.6163 38.0938 29.2046 38.764C29.8031 39.4343 30.5565 39.7694 31.4648 39.7694C32.0427 39.7694 32.5432 39.6647 32.9664 39.4552C33.3895 39.2458 33.8385 38.9211 34.3132 38.4813L35.8303 40.1307C35.2421 40.7695 34.6022 41.2408 33.9107 41.5444C33.2296 41.8481 32.3884 42 31.3873 42Z" fill="#00A78E"/>
<path d="M38.4355 41.8115V30.8155H40.8195V35.1668H45.2161V30.8155H47.6001V41.8115H45.2161V37.3974H40.8195V41.8115H38.4355Z" fill="#00A78E"/>
</svg>
